<svg width="40" height="40" viewBox="0 0 800 800" fill="none" xmlns="http://www.w3.org/2000/svg">
<g clipPath="url(#clip0_307_7749)">
<path d="M187.174 453.953C216.972 453.953 241.128 429.798 241.128 400C241.128 370.202 216.972 346.046 187.174 346.046C157.376 346.046 133.221 370.202 133.221 400C133.221 429.798 157.376 453.953 187.174 453.953Z" fill="#BCBEC0"/>
<path d="M612.77 453.953C642.567 453.953 666.723 429.798 666.723 400C666.723 370.202 642.567 346.046 612.77 346.046C582.972 346.046 558.816 370.202 558.816 400C558.816 429.798 582.972 453.953 612.77 453.953Z" fill="#BCBEC0"/>
<path d="M576.068 167.216C544.609 224.271 514.052 281.832 483.946 339.563C473.798 359.013 463.763 378.52 453.897 398.083C453.333 381.903 445.666 367.583 433.939 358.111C424.693 350.613 412.854 346.046 400 346.046C388.724 346.046 378.295 349.485 369.612 355.405C355.349 365.102 345.99 381.452 345.99 400C345.99 400.62 345.99 401.24 345.99 401.86C332.516 374.855 318.985 347.907 305.229 321.015C279.183 270.162 252.572 219.648 225.285 169.471C212.77 146.413 226.526 119.633 254.433 119.182C266.61 118.957 278.844 118.562 291.078 119.07C303.425 119.577 311.825 126.737 317.35 137.449C328.457 158.929 339.507 180.409 350.613 201.832C365.722 230.867 380.888 259.845 396.054 288.879C397.012 290.684 398.478 292.262 400.564 295.081C407.555 281.776 414.038 269.542 420.409 257.364C441.663 216.941 462.805 176.462 484.003 136.096C490.373 123.975 500.522 117.773 514.334 118.111C526.286 118.393 538.238 118.506 550.19 118.957C572.121 119.859 589.655 142.41 575.955 167.273L576.068 167.216Z" fill="#00AEEF"/>
<path d="M545.455 680.817C533.277 681.043 520.987 681.438 508.809 680.93C496.406 680.423 488.062 673.263 482.537 662.551C471.431 641.127 460.381 619.591 449.218 598.168C434.165 569.133 418.999 540.155 403.777 511.177C402.819 509.373 401.353 507.794 399.267 504.975C392.22 518.28 385.793 530.458 379.366 542.692C358.168 583.115 337.026 623.594 315.772 664.017C309.401 676.138 299.309 682.283 285.44 682.001C273.488 681.776 261.48 681.607 249.528 681.156C227.597 680.31 210.063 657.759 223.763 632.896C255.278 575.842 285.779 518.28 315.941 460.493C326.089 441.043 336.068 421.593 345.99 402.03C346.554 418.21 354.221 432.53 365.948 442.001C375.194 449.5 387.033 454.01 399.887 454.01C411.163 454.01 421.593 450.571 430.218 444.651C444.482 434.954 453.841 418.605 453.841 400.056C453.841 399.436 453.841 398.816 453.841 398.252C467.315 425.257 480.846 452.206 494.602 479.042C520.592 529.894 547.259 580.409 574.545 630.585C587.118 653.643 573.305 680.423 545.455 680.874V680.817Z" fill="white"/>
<path d="M400 799.944C179.45 799.944 0 620.55 0 400C0 179.45 179.45 0 400 0C620.55 0 800 179.45 800 400C800 620.55 620.55 800 400 800V799.944ZM400 23.6786C192.53 23.735 23.735 192.53 23.735 400C23.735 607.47 192.53 776.265 400 776.265C607.47 776.265 776.265 607.47 776.265 400C776.265 192.53 607.47 23.735 400 23.735V23.6786Z" fill="white"/>
</g>
<defs>
<clipPath id="clip0_307_7749">
<rect width="800" height="800" fill="white"/>
</clipPath>
</defs>
</svg>
