<svg width="241" height="56" viewBox="0 0 241 56" fill="none" xmlns="http://www.w3.org/2000/svg">
<g clipPath="url(#clip0_409_8639)">
<path d="M72.3784 16.7104H77.2471L80.7899 32.1302L85.0728 19.26L84.3643 16.7104H88.7699L93.0528 32.1302L96.5639 16.7104H101.433L95.8237 37.6004H90.9232L87.2261 25.1603L82.8838 37.6004H77.9834L72.3744 16.7104H72.3784Z" fill="white"/>
<path d="M113.232 16.3749C119.364 16.3749 124.015 21.0439 124.015 27.1574C124.015 33.2708 119.364 37.9398 113.232 37.9398C107.101 37.9398 102.45 33.2708 102.45 27.1574C102.45 21.0439 107.101 16.3749 113.232 16.3749ZM113.232 33.5787C116.775 33.5787 119.487 30.7213 119.487 27.1574C119.487 23.5935 116.775 20.7361 113.232 20.7361C109.69 20.7361 106.947 23.6251 106.947 27.1574C106.947 30.6897 109.658 33.5787 113.232 33.5787Z" fill="white"/>
<path d="M127.344 16.7104H134.584C138.681 16.7104 141.515 18.9206 141.515 22.7923C141.515 25.7721 139.789 27.4928 137.727 28.0769C140.347 29.4267 141.919 33.113 142.409 37.6004H137.881C137.141 33.0538 135.356 29.8293 132.799 29.8293H131.722V37.6004H127.348V16.7104H127.344ZM134.584 20.9176H131.718V25.6181H134.584C135.969 25.6181 137.018 24.7893 137.018 23.2817C137.018 21.774 135.969 20.9176 134.584 20.9176Z" fill="white"/>
<path d="M145.612 16.7104H149.986V25.1564L155.377 16.7104H160.491L154.823 25.2827L160.8 37.6004H155.686L151.68 29.0005L149.986 31.3961V37.6004H145.612V16.7104Z" fill="white"/>
<path d="M172.481 37.6004L167.612 24.5762V37.6004H163.238V16.7104H168.598L174.421 32.0394L180.212 16.7104H185.544V37.6004H181.17V24.5762L176.301 37.6004H172.481Z" fill="#00AEEF"/>
<path d="M190.163 37.6004V16.7104H202.085V20.9176H194.537V24.9709H201.468V29.1781H194.537V33.3853H202.085V37.5925H190.163V37.6004Z" fill="#00AEEF"/>
<path d="M210.62 25.5274V37.6004H206.246V19.3231L204.797 17.0182V16.7104H209.974L219.154 30.0108V16.7104H223.528V37.6004H219.154L210.62 25.5274Z" fill="#00AEEF"/>
<path d="M231.54 20.9216H226.457V16.7144H241V20.9216H235.917V37.6004H231.544V20.9216H231.54Z" fill="#00AEEF"/>
<path d="M13.1417 31.779C15.2338 31.779 16.9299 30.088 16.9299 28.002C16.9299 25.916 15.2338 24.225 13.1417 24.225C11.0496 24.225 9.35358 25.916 9.35358 28.002C9.35358 30.088 11.0496 31.779 13.1417 31.779Z" fill="#BCBEC0"/>
<path d="M43.0233 31.779C45.1154 31.779 46.8114 30.088 46.8114 28.002C46.8114 25.916 45.1154 24.225 43.0233 24.225C40.9311 24.225 39.2351 25.916 39.2351 28.002C39.2351 30.088 40.9311 31.779 43.0233 31.779Z" fill="#BCBEC0"/>
<path d="M40.4464 11.706C38.2376 15.7 36.0922 19.7296 33.9785 23.7711C33.266 25.1327 32.5614 26.4983 31.8687 27.8678C31.8291 26.7351 31.2907 25.7326 30.4674 25.0696C29.8182 24.5446 28.987 24.225 28.0845 24.225C27.2928 24.225 26.5605 24.4657 25.9509 24.8801C24.9495 25.559 24.2924 26.7035 24.2924 28.002C24.2924 28.0454 24.2924 28.0888 24.2924 28.1322C23.3463 26.2417 22.3963 24.3552 21.4305 22.4726C19.6017 18.9127 17.7334 15.3764 15.8176 11.8638C14.9388 10.2496 15.9046 8.37494 17.864 8.34336C18.719 8.32758 19.578 8.29995 20.4369 8.33547C21.3038 8.37099 21.8936 8.87222 22.2815 9.6221C23.0613 11.1258 23.8372 12.6295 24.617 14.1293C25.6778 16.1618 26.7426 18.1904 27.8074 20.223C27.8747 20.3493 27.9776 20.4598 28.1241 20.6571C28.6149 19.7257 29.0701 18.8693 29.5174 18.0168C31.0097 15.187 32.4941 12.3532 33.9824 9.52738C34.4297 8.67883 35.1422 8.2447 36.112 8.26838C36.9512 8.28811 37.7903 8.296 38.6295 8.32758C40.1693 8.39072 41.4004 9.96941 40.4385 11.7099L40.4464 11.706Z" fill="#00AEEF"/>
<path d="M38.297 47.6606C37.442 47.6764 36.5791 47.704 35.7241 47.6685C34.8532 47.633 34.2674 47.1317 33.8795 46.3819C33.0997 44.8821 32.3239 43.3745 31.5401 41.8747C30.4832 39.8421 29.4184 37.8135 28.3497 35.7849C28.2824 35.6586 28.1795 35.5481 28.033 35.3508C27.5382 36.2822 27.087 37.1347 26.6357 37.9911C25.1474 40.8209 23.663 43.6547 22.1707 46.4845C21.7234 47.333 21.0149 47.7632 20.0411 47.7435C19.2019 47.7277 18.3588 47.7158 17.5196 47.6843C15.9798 47.6251 14.7488 46.0464 15.7107 44.3059C17.9234 40.3118 20.0649 36.2822 22.1826 32.2368C22.8951 30.8752 23.5957 29.5136 24.2924 28.1441C24.332 29.2768 24.8703 30.2792 25.6936 30.9423C26.3428 31.4672 27.1741 31.7829 28.0766 31.7829C28.8682 31.7829 29.6005 31.5422 30.2061 31.1278C31.2076 30.449 31.8647 29.3044 31.8647 28.0059C31.8647 27.9625 31.8647 27.9191 31.8647 27.8796C32.8107 29.7701 33.7607 31.6566 34.7266 33.5353C36.5514 37.0952 38.4237 40.6315 40.3395 44.1441C41.2222 45.7583 40.2524 47.633 38.297 47.6645V47.6606Z" fill="white"/>
<path d="M28.0845 56C12.5994 56 0 43.4415 0 28.002C0 12.5624 12.5994 0 28.0845 0C43.5695 0 56.1689 12.5624 56.1689 28.002C56.1689 43.4415 43.5695 56.0039 28.0845 56.0039V56ZM28.0845 1.65762C13.5178 1.66157 1.66646 13.478 1.66646 28.002C1.66646 42.5259 13.5178 54.3424 28.0845 54.3424C42.6512 54.3424 54.5025 42.5259 54.5025 28.002C54.5025 13.478 42.6512 1.66157 28.0845 1.66157V1.65762Z" fill="white"/>
</g>
<defs>
<clipPath id="clip0_409_8639">
<rect width="241" height="56" fill="white"/>
</clipPath>
</defs>
</svg>
