<svg width="240" height="56" viewBox="0 0 240 56" fill="none" xmlns="http://www.w3.org/2000/svg">
<g clipPath="url(#clip0_1_691)">
<path d="M72.078 16.7104H76.9266L80.4546 32.1302L84.7198 19.26L84.0142 16.7104H88.4015L92.6667 32.1302L96.1632 16.7104H101.012L95.426 37.6004H90.5459L86.8642 25.1603L82.5399 37.6004H77.6598L72.0741 16.7104H72.078Z" fill="#2B3990"/>
<path d="M112.763 16.3749C118.869 16.3749 123.5 21.0439 123.5 27.1574C123.5 33.2708 118.869 37.9398 112.763 37.9398C106.657 37.9398 102.025 33.2708 102.025 27.1574C102.025 21.0439 106.657 16.3749 112.763 16.3749ZM112.763 33.5787C116.291 33.5787 118.991 30.7213 118.991 27.1574C118.991 23.5935 116.291 20.7361 112.763 20.7361C109.235 20.7361 106.503 23.6251 106.503 27.1574C106.503 30.6897 109.203 33.5787 112.763 33.5787Z" fill="#2B3990"/>
<path d="M126.816 16.7104H134.025C138.105 16.7104 140.928 18.9206 140.928 22.7923C140.928 25.7721 139.209 27.4928 137.155 28.077C139.765 29.4267 141.33 33.1169 141.819 37.6004H137.309C136.572 33.0538 134.794 29.8293 132.248 29.8293H131.175V37.6004H126.819V16.7104H126.816ZM134.025 20.9176H131.171V25.6182H134.025C135.405 25.6182 136.45 24.7893 136.45 23.2817C136.45 21.7741 135.405 20.9176 134.025 20.9176Z" fill="#2B3990"/>
<path d="M145.008 16.7104H149.363V25.1564L154.732 16.7104H159.825L154.18 25.2827L160.133 37.6004H155.04L151.051 29.0005L149.363 31.3962V37.6004H145.008V16.7104Z" fill="#2B3990"/>
<path d="M171.765 37.6004L166.917 24.5762V37.6004H162.561V16.7104H167.898L173.697 32.0395L179.464 16.7104H184.774V37.6004H180.418V24.5762L175.569 37.6004H171.765Z" fill="#00AEEF"/>
<path d="M189.374 37.6004V16.7104H201.247V20.9176H193.73V24.9709H200.632V29.1781H193.73V33.3853H201.247V37.5925H189.374V37.6004Z" fill="#00AEEF"/>
<path d="M209.746 25.5274V37.6004H205.39V19.3231L203.947 17.0183V16.7104H209.103L218.245 30.0109V16.7104H222.6V37.6004H218.245L209.746 25.5274Z" fill="#00AEEF"/>
<path d="M230.579 20.9216H225.517V16.7144H240V20.9216H234.939V37.6004H230.583V20.9216H230.579Z" fill="#00AEEF"/>
<path d="M27.966 55.9961C12.5463 55.9961 0 43.4385 0 28C0 12.5615 12.5463 0 27.966 0C43.3857 0 55.9319 12.5615 55.9319 28C55.9319 43.4385 43.3857 56 27.966 56V55.9961ZM27.966 1.65751C13.4607 1.66145 1.65943 13.4771 1.65943 28C1.65943 42.5229 13.4607 54.3386 27.966 54.3386C42.4712 54.3386 54.2725 42.5229 54.2725 28C54.2725 13.4771 42.4712 1.66145 27.966 1.66145V1.65751Z" fill="#A7A9AC"/>
<path d="M13.23 32.065C15.3923 32.065 17.1452 30.3099 17.1452 28.145C17.1452 25.98 15.3923 24.225 13.23 24.225C11.0677 24.225 9.31476 25.98 9.31476 28.145C9.31476 30.3099 11.0677 32.065 13.23 32.065Z" fill="#A7A9AC"/>
<path d="M42.9876 32.065C45.1499 32.065 46.9028 30.3099 46.9028 28.145C46.9028 25.98 45.1499 24.225 42.9876 24.225C40.8252 24.225 39.0723 25.98 39.0723 28.145C39.0723 30.3099 40.8252 32.065 42.9876 32.065Z" fill="#A7A9AC"/>
<path d="M40.2786 11.706C38.079 15.7 35.9425 19.7296 33.8375 23.7711C33.1279 25.1327 32.4263 26.4983 31.7364 27.8678C31.697 26.7351 31.1609 25.7326 30.341 25.0696C29.6945 24.5446 28.8667 24.225 27.968 24.225C27.1796 24.225 26.4503 24.4657 25.8433 24.8801C24.846 25.559 24.1916 26.7035 24.1916 28.002C24.1916 28.0454 24.1916 28.0888 24.1916 28.1322C23.2495 26.2417 22.3034 24.3552 21.3416 22.4726C19.5204 18.9127 17.6598 15.3764 15.7519 11.8638C14.8768 10.2496 15.8387 8.37494 17.7899 8.34336C18.6414 8.32758 19.4968 8.29995 20.3522 8.33547C21.2155 8.37099 21.8028 8.87222 22.1891 9.6221C22.9657 11.1258 23.7383 12.6295 24.5148 14.1293C25.5713 16.1618 26.6317 18.1904 27.692 20.223C27.759 20.3493 27.8615 20.4598 28.0074 20.6571C28.4962 19.7257 28.9495 18.8693 29.3949 18.0168C30.881 15.187 32.3593 12.3532 33.8414 9.52738C34.2869 8.67883 34.9964 8.2447 35.9622 8.26838C36.7979 8.28811 37.6336 8.296 38.4692 8.32758C40.0026 8.39072 41.2286 9.96941 40.2707 11.7099L40.2786 11.706Z" fill="#00AEEF"/>
<path d="M38.1381 47.6606C37.2867 47.6764 36.4273 47.704 35.5759 47.6685C34.7087 47.633 34.1252 47.1317 33.7389 46.3818C32.9624 44.8821 32.1898 43.3744 31.4093 41.8747C30.3568 39.8421 29.2964 37.8135 28.2321 35.7849C28.1651 35.6586 28.0626 35.5481 27.9167 35.3508C27.424 36.2822 26.9746 37.1347 26.5252 37.9911C25.0431 40.8209 23.5648 43.6547 22.0787 46.4845C21.6333 47.333 20.9277 47.7632 19.958 47.7435C19.1223 47.7277 18.2827 47.7158 17.447 47.6843C15.9136 47.6251 14.6876 46.0464 15.6455 44.3059C17.8491 40.3118 19.9816 36.2822 22.0906 32.2368C22.8001 30.8752 23.4978 29.5136 24.1916 28.1441C24.231 29.2768 24.7671 30.2792 25.587 30.9423C26.2335 31.4672 27.0613 31.7829 27.9601 31.7829C28.7485 31.7829 29.4777 31.5422 30.0808 31.1278C31.0781 30.4489 31.7325 29.3044 31.7325 28.0059C31.7325 27.9625 31.7325 27.9191 31.7325 27.8796C32.6746 29.7701 33.6207 31.6566 34.5825 33.5353C36.3997 37.0952 38.2643 40.6315 40.1722 44.1441C41.0512 45.7583 40.0854 47.633 38.1381 47.6645V47.6606Z" fill="#2B3990"/>
</g>
<defs>
<clipPath id="clip0_1_691">
<rect width="240" height="56" fill="white"/>
</clipPath>
</defs>
</svg>
